<svg width="53" height="53" viewBox="0 0 53 53" fill="none" xmlns="http://www.w3.org/2000/svg">
<circle cx="26.5" cy="26.5" r="25" fill="white" stroke="#3782E9" stroke-width="3"/>
<g clip-path="url(#clip0)">
<path d="M38.4248 14.5757C35.2396 11.3906 31.0048 9.63647 26.5004 9.63647C21.9959 9.63647 17.7611 11.3906 14.5759 14.5757C11.3909 17.7609 9.63672 21.9957 9.63672 26.5001C9.63672 31.0045 11.3909 35.2394 14.5759 38.4245C17.7611 41.6096 21.9959 43.3637 26.5004 43.3637C31.0048 43.3637 35.2396 41.6096 38.4248 38.4245C41.6098 35.2394 43.364 31.0045 43.364 26.5001C43.364 21.9957 41.6098 17.7609 38.4248 14.5757ZM26.5004 41.3875C18.2914 41.3875 11.6129 34.7091 11.6129 26.5001C11.6129 18.2911 18.2914 11.6127 26.5004 11.6127C34.7093 11.6127 41.3878 18.2911 41.3878 26.5001C41.3878 34.7091 34.7093 41.3875 26.5004 41.3875Z" fill="#FFCA42"/>
<path d="M26.5 13.457C19.3081 13.457 13.457 19.3081 13.457 26.5C13.457 33.6919 19.3081 39.543 26.5 39.543C33.6919 39.543 39.543 33.6919 39.543 26.5C39.543 19.3081 33.6919 13.457 26.5 13.457ZM26.5 37.5668C20.3977 37.5668 15.4332 32.6023 15.4332 26.5C15.4332 20.3977 20.3977 15.4332 26.5 15.4332C32.6023 15.4332 37.5668 20.3977 37.5668 26.5C37.5668 32.6023 32.6023 37.5668 26.5 37.5668Z" fill="#FFCA42"/>
<path d="M30.8372 25.714C31.4432 25.0347 31.8125 24.1398 31.8125 23.16C31.8126 22.1372 31.4122 21.1734 30.6851 20.4462C29.958 19.7191 28.9942 19.3187 27.9714 19.3188H27.4885V17.4097H25.5123V19.3188H21.1621V21.295H22.7759V31.7054H21.1621V33.6816H25.5123V35.5908H27.4885V33.6817H28.4985C30.8852 33.6817 32.8269 31.7399 32.8269 29.3531C32.827 28.2005 32.3758 27.1144 31.5564 26.295C31.335 26.0735 31.0937 25.88 30.8372 25.714ZM24.7521 21.295H27.9715C28.4665 21.295 28.9339 21.4897 29.2877 21.8436C29.6415 22.1974 29.8363 22.6649 29.8363 23.1599C29.8363 24.1781 29.0161 25.0078 28.0018 25.0242H24.752V21.295H24.7521ZM28.4985 31.7055H24.7521V27.0013L28.4986 27.0005C29.1231 27.0005 29.7129 27.2461 30.159 27.6923C30.6051 28.1384 30.8507 28.7282 30.8507 29.353C30.8507 30.6501 29.7955 31.7055 28.4985 31.7055Z" fill="#393939"/>
</g>
<defs>
<clipPath id="clip0">
<rect width="33.7273" height="33.7273" fill="white" transform="translate(9.63672 9.63647)"/>
</clipPath>
</defs>
</svg>
