<svg width="53" height="53" viewBox="0 0 53 53" fill="none" xmlns="http://www.w3.org/2000/svg">
<circle cx="26.5" cy="26.5" r="25" fill="white" stroke="#3782E9" stroke-width="3"/>
<path d="M38.67 15.9194H35.6439C35.7799 15.6219 35.8564 15.2915 35.8564 14.9435V11.1893C35.8564 9.89022 34.7995 8.83325 33.5002 8.83325H19.5231C18.2239 8.83325 17.1669 9.89022 17.1669 11.1894V14.9436C17.1669 15.2916 17.2434 15.6219 17.3794 15.9195H14.3293C13.3034 15.9195 12.4688 16.7542 12.4688 17.7801V37.5809C12.4688 38.6068 13.3034 39.4415 14.3293 39.4415H15.4587V43.4765C15.4587 43.8576 15.7677 44.1666 16.1488 44.1666H36.8029C37.1839 44.1666 37.493 43.8576 37.493 43.4765V39.4415H38.6701C39.696 39.4415 40.5307 38.6068 40.5307 37.5809V17.78C40.5306 16.7541 39.696 15.9194 38.67 15.9194ZM18.5472 14.9436V11.1894C18.5472 10.6513 18.9851 10.2135 19.5232 10.2135H33.5003C34.0384 10.2135 34.4762 10.6513 34.4762 11.1894V14.9436C34.4762 15.4817 34.0384 15.9195 33.5003 15.9195H19.5231C18.985 15.9194 18.5472 15.4816 18.5472 14.9436ZM39.1504 37.5809C39.1504 37.8458 38.9349 38.0613 38.67 38.0613H29.7237C29.3426 38.0613 29.0336 38.3703 29.0336 38.7514C29.0336 39.1326 29.3426 39.4415 29.7237 39.4415H36.1128V42.7864H16.8389V39.4415H23.6513C24.0324 39.4415 24.3414 39.1326 24.3414 38.7514C24.3414 38.3703 24.0324 38.0613 23.6513 38.0613H14.3293C14.0645 38.0613 13.849 37.8458 13.849 37.5809V17.78C13.849 17.5152 14.0645 17.2997 14.3293 17.2997H38.6701C38.9349 17.2997 39.1505 17.5152 39.1505 17.78V37.5809H39.1504Z" fill="#0DB4AA"/>
<path d="M29.0292 19.9343H16.5602C16.1791 19.9343 15.8701 20.2433 15.8701 20.6244V31.1389C15.8701 31.52 16.1791 31.829 16.5602 31.829H29.0292C29.4103 31.829 29.7193 31.52 29.7193 31.1389V20.6244C29.7193 20.2433 29.4103 19.9343 29.0292 19.9343ZM28.3391 30.4488H17.2503V21.3145H28.3391V30.4488Z" fill="#0DB4AA"/>
<path d="M33.0065 24.8918H31.9333C31.5522 24.8918 31.2432 25.2008 31.2432 25.5819C31.2432 25.9631 31.5522 26.2721 31.9333 26.2721H33.0065C33.3875 26.2721 33.6966 25.9631 33.6966 25.5819C33.6966 25.2008 33.3876 24.8918 33.0065 24.8918Z" fill="#0DB4AA"/>
<path d="M36.8034 24.8918H35.7301C35.3491 24.8918 35.04 25.2008 35.04 25.5819C35.04 25.9631 35.3491 26.2721 35.7301 26.2721H36.8034C37.1845 26.2721 37.4935 25.9631 37.4935 25.5819C37.4935 25.2008 37.1845 24.8918 36.8034 24.8918Z" fill="#0DB4AA"/>
<path d="M33.0065 27.6377H31.9333C31.5522 27.6377 31.2432 27.9467 31.2432 28.3278C31.2432 28.7089 31.5522 29.0179 31.9333 29.0179H33.0065C33.3875 29.0179 33.6966 28.7089 33.6966 28.3278C33.6966 27.9467 33.3876 27.6377 33.0065 27.6377Z" fill="#0DB4AA"/>
<path d="M36.8034 27.6377H35.7301C35.3491 27.6377 35.04 27.9467 35.04 28.3278C35.04 28.7089 35.3491 29.0179 35.7301 29.0179H36.8034C37.1845 29.0179 37.4935 28.7089 37.4935 28.3278C37.4935 27.9467 37.1845 27.6377 36.8034 27.6377Z" fill="#0DB4AA"/>
<path d="M33.0065 30.384H31.9333C31.5522 30.384 31.2432 30.693 31.2432 31.0741C31.2432 31.4553 31.5522 31.7642 31.9333 31.7642H33.0065C33.3875 31.7642 33.6966 31.4553 33.6966 31.0741C33.6966 30.693 33.3876 30.384 33.0065 30.384Z" fill="#0DB4AA"/>
<path d="M36.8034 30.384H35.7301C35.3491 30.384 35.04 30.693 35.04 31.0741C35.04 31.4553 35.3491 31.7642 35.7301 31.7642H36.8034C37.1845 31.7642 37.4935 31.4553 37.4935 31.0741C37.4935 30.693 37.1845 30.384 36.8034 30.384Z" fill="#0DB4AA"/>
<path d="M25.3547 34.2734H20.1208C19.7397 34.2734 19.4307 34.5824 19.4307 34.9635C19.4307 35.3447 19.7397 35.6536 20.1208 35.6536H25.3547C25.7358 35.6536 26.0448 35.3447 26.0448 34.9635C26.0448 34.5824 25.7359 34.2734 25.3547 34.2734Z" fill="#0DB4AA"/>
<path d="M23.5574 12.3765H21.3073C20.9262 12.3765 20.6172 12.6854 20.6172 13.0666C20.6172 13.4477 20.9262 13.7567 21.3073 13.7567H23.5574C23.9385 13.7567 24.2475 13.4477 24.2475 13.0666C24.2475 12.6854 23.9385 12.3765 23.5574 12.3765Z" fill="#0DB4AA"/>
<path d="M32.1709 12.3765H26.5612C26.1801 12.3765 25.8711 12.6854 25.8711 13.0666C25.8711 13.4477 26.1801 13.7567 26.5612 13.7567H32.1709C32.5519 13.7567 32.861 13.4477 32.861 13.0666C32.861 12.6854 32.5519 12.3765 32.1709 12.3765Z" fill="#0DB4AA"/>
<path d="M27.3595 38.4876C27.1245 37.9137 26.28 37.9403 26.0727 38.519C25.8616 39.1082 26.5179 39.6598 27.0617 39.3516C27.3605 39.1823 27.4919 38.8053 27.3595 38.4876Z" fill="#0DB4AA"/>
</svg>
