<svg width="53" height="53" viewBox="0 0 53 53" fill="none" xmlns="http://www.w3.org/2000/svg">
<circle cx="26.5" cy="26.5" r="25" fill="white" stroke="#3782E9" stroke-width="3"/>
<g clip-path="url(#clip0)">
<path d="M34.7066 15.9993L38.1379 19.3897C38.3964 19.6451 38.5428 19.9927 38.545 20.3561C38.5471 20.7193 38.4049 21.0688 38.1495 21.3273L34.7129 24.8053C34.1811 25.3436 33.3136 25.3487 32.7753 24.8169C32.5041 24.5489 32.3682 24.1956 32.3682 23.8422C32.3682 23.4943 32.4998 23.1463 32.7637 22.8793L33.8401 21.7899C33.3402 21.8747 32.7267 22.0225 32.0586 22.2792C31.0753 22.657 30.1622 23.196 29.3448 23.8813C28.4936 24.5948 27.7404 25.4738 27.0985 26.5001C27.7405 27.5263 28.4936 28.4053 29.3448 29.1188C30.1622 29.8041 31.0753 30.3431 32.0586 30.7209C32.7267 30.9776 33.3402 31.1254 33.8401 31.2102L32.7637 30.1208C32.4999 29.8538 32.3682 29.5058 32.3682 29.1579C32.3682 28.8045 32.5041 28.4512 32.7753 28.1832C33.3136 27.6514 34.1811 27.6566 34.7129 28.1948L38.1495 31.6729C38.4049 31.9314 38.5471 32.2809 38.545 32.6441C38.5428 33.0075 38.3964 33.3551 38.1379 33.6105L34.7066 37.0009C34.1683 37.5327 33.3008 37.5275 32.769 36.9893C32.2371 36.451 32.2423 35.5835 32.7806 35.0517L33.8597 33.9854C33.1577 33.8966 32.2431 33.7116 31.2206 33.3335C29.9304 32.8565 28.7333 32.1669 27.6626 31.2839C26.8731 30.6328 26.1532 29.8764 25.5097 29.0231C24.8662 29.8764 24.1463 30.6328 23.3568 31.2839C22.2861 32.1669 21.089 32.8565 19.7988 33.3335C17.6196 34.1392 15.9304 34.0682 15.745 34.0575C15.0165 34.0152 14.4541 33.4113 14.4541 32.6908C14.4541 32.6642 14.4549 32.6373 14.4565 32.6103C14.5002 31.8549 15.1481 31.278 15.9036 31.3218C15.916 31.3225 17.1899 31.3765 18.8485 30.7633C19.85 30.393 20.7802 29.8568 21.6134 29.1697C22.4899 28.4469 23.2636 27.5507 23.9208 26.5C23.2636 25.4494 22.4899 24.5531 21.6134 23.8303C20.7802 23.1432 19.85 22.6071 18.8485 22.2368C17.1899 21.6235 15.916 21.6775 15.9036 21.6783C15.1481 21.722 14.5002 21.1452 14.4565 20.3897C14.4549 20.3628 14.4541 20.3359 14.4541 20.3092C14.4541 19.5888 15.0165 18.9849 15.745 18.9426C15.9304 18.9319 17.6196 18.8609 19.7988 19.6667C21.089 20.1437 22.2861 20.8333 23.3568 21.7162C24.1463 22.3674 24.8662 23.1237 25.5097 23.9771C26.1532 23.1237 26.8731 22.3674 27.6626 21.7162C28.7333 20.8333 29.9304 20.1437 31.2206 19.6667C32.2431 19.2886 33.1577 19.1035 33.8597 19.0148L32.7806 17.9485C32.2423 17.4167 32.2371 16.5491 32.769 16.0109C33.3008 15.4726 34.1683 15.4674 34.7066 15.9993Z" fill="#FF1C45"/>
</g>
<defs>
<clipPath id="clip0">
<rect width="24.0909" height="24.0909" fill="white" transform="translate(14.4541 14.4546)"/>
</clipPath>
</defs>
</svg>
