<svg width="53" height="53" viewBox="0 0 53 53" fill="none" xmlns="http://www.w3.org/2000/svg">
<circle cx="26.5" cy="26.5" r="25" fill="white" stroke="#3782E9" stroke-width="3"/>
<path d="M29.6289 25.9444L25.1109 24.6062C24.588 24.4538 24.2241 23.9583 24.2241 23.4078C24.2241 22.7175 24.7763 22.1586 25.4581 22.1586H28.2317C28.7421 22.1586 29.2441 22.3152 29.6624 22.6032C29.9176 22.7768 30.2606 22.7345 30.4782 22.5185L31.934 21.0787C32.231 20.7865 32.1892 20.2995 31.8587 20.0412C30.8338 19.2281 29.5536 18.775 28.2401 18.7708V16.7381C28.2401 16.3654 27.9389 16.0605 27.5707 16.0605H26.2321C25.8639 16.0605 25.5627 16.3654 25.5627 16.7381V18.7708H25.4581C22.7934 18.7708 20.6515 21.0872 20.8983 23.8355C21.074 25.7877 22.5465 27.3757 24.4039 27.9263L28.6919 29.1967C29.2148 29.3534 29.5787 29.8446 29.5787 30.3951C29.5787 31.0854 29.0265 31.6444 28.3447 31.6444H25.5711C25.0607 31.6444 24.5587 31.4877 24.1404 31.1997C23.8852 31.0261 23.5422 31.0684 23.3246 31.2844L21.8688 32.7242C21.5718 33.0164 21.6137 33.5034 21.9441 33.7617C22.9691 34.5748 24.2492 35.0279 25.5627 35.0321V37.0648C25.5627 37.4375 25.8639 37.7424 26.2321 37.7424H27.5707C27.9389 37.7424 28.2401 37.4375 28.2401 37.0648V35.0237C30.1895 34.9856 32.0176 33.8125 32.6619 31.945C33.5613 29.3364 32.0511 26.6601 29.6289 25.9444Z" fill="#0DB4AA"/>
<path d="M41.6664 14.6847L27.4572 8.94116C27.1013 8.79732 26.7012 8.79725 26.3453 8.94116L12.1361 14.6847C11.595 14.9035 11.2422 15.4178 11.2422 15.9883V22.9703C11.2422 32.5841 17.2107 41.2319 26.3534 44.865C26.7045 45.0045 27.098 45.0045 27.4492 44.865C36.5917 41.232 42.5604 32.5842 42.5604 22.9703V15.9883C42.5604 15.4178 42.2077 14.9035 41.6664 14.6847ZM39.6605 22.9703C39.6605 31.143 34.7308 38.6665 26.9013 42.0248C19.281 38.7562 14.142 31.3645 14.142 22.9703V16.9307L26.9013 11.7732L39.6605 16.9307V22.9703Z" fill="#0DB4AA"/>
</svg>
