<svg width="53" height="53" viewBox="0 0 53 53" fill="none" xmlns="http://www.w3.org/2000/svg">
<circle cx="26.5" cy="26.5" r="25" fill="white" stroke="#3782E9" stroke-width="3"/>
<path d="M30.7172 24.787L24.3933 22.9532C23.6614 22.7443 23.1519 22.0653 23.1519 21.3109C23.1519 20.365 23.9249 19.599 24.8793 19.599H28.7614C29.4758 19.599 30.1785 19.8137 30.764 20.2083C31.1212 20.4462 31.6013 20.3882 31.9058 20.0922L33.9435 18.1192C34.3592 17.7187 34.3007 17.0514 33.8381 16.6974C32.4035 15.5832 30.6118 14.9622 28.7731 14.9564V12.1709C28.7731 11.6603 28.3516 11.2424 27.8363 11.2424H25.9625C25.4473 11.2424 25.0257 11.6603 25.0257 12.1709V14.9564H24.8793C21.1494 14.9564 18.1514 18.1308 18.4969 21.897C18.7428 24.5723 20.8039 26.7484 23.4037 27.5029L29.4055 29.2438C30.1375 29.4585 30.6469 30.1317 30.6469 30.8861C30.6469 31.832 29.874 32.598 28.9195 32.598H25.0374C24.323 32.598 23.6204 32.3833 23.0348 31.9887C22.6776 31.7508 22.1975 31.8088 21.893 32.1048L19.8553 34.0778C19.4396 34.4782 19.4981 35.1456 19.9607 35.4996C21.3953 36.6138 23.1871 37.2347 25.0257 37.2405V40.0261C25.0257 40.5367 25.4473 40.9546 25.9625 40.9546H27.8363C28.3516 40.9546 28.7731 40.5367 28.7731 40.0261V37.2289C31.5018 37.1767 34.0606 35.5692 34.9623 33.01C36.2213 29.4353 34.1074 25.7677 30.7172 24.787Z" fill="#0DB4AA"/>
</svg>
