<svg width="53" height="53" viewBox="0 0 53 53" fill="none" xmlns="http://www.w3.org/2000/svg">
<circle cx="26.5" cy="26.5" r="25" fill="white" stroke="#3782E9" stroke-width="3"/>
<g clip-path="url(#clip0)">
<path d="M38.1063 17.1644C37.9505 15.1534 36.2656 13.5645 34.2154 13.5645H15.9499C13.7972 13.5645 12.0459 15.3158 12.0459 17.4684V35.5312C12.0459 37.6839 13.7972 39.4352 15.9499 39.4352H37.0511C39.2037 39.4352 40.955 37.6839 40.955 35.5312V20.9222C40.955 19.1353 39.7477 17.626 38.1063 17.1644ZM15.9499 15.3882H34.2154C35.2079 15.3882 36.0396 16.087 36.246 17.0183H15.9499C15.1855 17.0183 14.4724 17.2399 13.8697 17.6211V17.4684C13.8697 16.3214 14.8028 15.3882 15.9499 15.3882ZM37.051 37.6114H15.9499C14.8028 37.6114 13.8697 36.6782 13.8697 35.5312V20.9222C13.8697 19.7752 14.8028 18.842 15.9499 18.842H37.0511C38.1981 18.842 39.1313 19.7752 39.1313 20.9222V24.1045H33.3166C31.0124 24.1045 29.1378 25.9792 29.1378 28.2834C29.1378 30.5876 31.0125 32.4622 33.3166 32.4622H39.1312V35.5312C39.1312 36.6782 38.198 37.6114 37.051 37.6114ZM39.1312 30.6385H33.3166C32.018 30.6385 30.9616 29.582 30.9616 28.2834C30.9616 26.9848 32.018 25.9283 33.3166 25.9283H39.1312V30.6385Z" fill="#0DB4AA"/>
<path d="M33.6554 29.3021C34.1798 29.3021 34.6048 28.877 34.6048 28.3527C34.6048 27.8284 34.1798 27.4033 33.6554 27.4033C33.1311 27.4033 32.7061 27.8284 32.7061 28.3527C32.7061 28.877 33.1311 29.3021 33.6554 29.3021Z" fill="#0DB4AA"/>
</g>
<defs>
<clipPath id="clip0">
<rect width="28.9091" height="28.9091" fill="white" transform="translate(12.0459 12.0454)"/>
</clipPath>
</defs>
</svg>
