<svg width="53" height="53" viewBox="0 0 53 53" fill="none" xmlns="http://www.w3.org/2000/svg">
<circle cx="26.5" cy="26.5" r="25" fill="white" stroke="#3782E9" stroke-width="3"/>
<g clip-path="url(#clip0)">
<path d="M37.748 35.4584C37.6892 35.4385 37.663 35.4019 37.663 35.3396V27.8478C37.663 25.9866 37.108 24.1877 36.0583 22.6458C35.1817 21.3583 34.0109 20.3207 32.6439 19.6102C32.686 19.4166 32.7088 19.2159 32.7088 19.0099C32.7088 18.1467 32.3189 17.3733 31.7064 16.8553C31.8305 16.6795 31.9551 16.5041 32.0774 16.3328C33.383 14.5045 34.7331 12.614 34.4141 10.4875C34.2914 9.6693 33.937 9.14448 33.3607 8.92769C32.3156 8.53455 31.2489 9.43721 30.1193 10.393C29.6511 10.7891 28.7819 11.5245 28.4663 11.5745C28.2533 11.5733 28.1603 11.5577 27.8702 10.6194C27.732 10.1721 27.5752 9.66498 27.2659 9.23666C27.108 9.01793 26.8734 8.88812 26.6256 8.85557C26.5149 8.84102 26.402 8.84604 26.2926 8.87031C26.0759 8.91866 25.8752 9.04251 25.735 9.23666C25.4257 9.66504 25.2689 10.1721 25.1307 10.6194C24.8406 11.5577 24.7476 11.5733 24.5346 11.5745C24.2186 11.5242 23.3164 10.7608 22.8817 10.393C21.752 9.43715 20.6847 8.53443 19.6402 8.92762C19.0639 9.14448 18.7094 9.66924 18.5867 10.4874C18.2676 12.614 19.6177 14.5045 20.9234 16.3327C21.0462 16.5048 21.1706 16.6795 21.2945 16.8551C20.6819 17.3732 20.292 18.1467 20.292 19.0098C20.292 19.2158 20.3148 19.4164 20.3569 19.61C19.0128 20.3082 17.8582 21.3229 16.9846 22.5842C15.9073 24.1399 15.3378 25.96 15.3378 27.8477V35.3396C15.3378 35.4018 15.3115 35.4384 15.2526 35.4584C14.1033 35.8473 13.3311 36.9219 13.3311 38.1324C13.3311 39.6884 14.597 40.9544 16.153 40.9544H36.8476C38.4036 40.9544 39.6696 39.6884 39.6696 38.1324C39.6697 36.922 38.8975 35.8474 37.748 35.4584ZM22.1734 19.0098C22.1734 18.4911 22.5954 18.0692 23.1141 18.0692H29.8868C30.4055 18.0692 30.8275 18.4911 30.8275 19.0098C30.8275 19.5285 30.4055 19.9505 29.8868 19.9505H23.1141C22.5953 19.9505 22.1734 19.5285 22.1734 19.0098ZM20.4347 10.8639C20.8045 11.0998 21.3402 11.5531 21.6665 11.8291C22.6576 12.6676 23.5916 13.4607 24.5318 13.4557C25.5898 13.4512 26.1585 12.894 26.5004 12.2691C26.8424 12.894 27.4111 13.4513 28.4691 13.4557H28.476C29.4118 13.4557 30.3457 12.6654 31.3344 11.8291C31.6821 11.5349 32.2037 11.0936 32.566 10.863C32.7094 12.2106 31.658 13.6827 30.5465 15.2393C30.362 15.4978 30.1712 15.765 29.9837 16.0344C29.9494 16.0837 29.9211 16.1353 29.8974 16.1882C29.8938 16.1882 29.8904 16.1879 29.8868 16.1879H23.1227C22.9005 15.8651 22.6751 15.5484 22.4544 15.2394C21.3431 13.6832 20.292 12.2112 20.4347 10.8639ZM36.8477 39.0731H16.1532C15.6345 39.0731 15.2125 38.6511 15.2125 38.1325C15.2125 37.7291 15.471 37.3707 15.8557 37.2405C16.6841 36.9602 17.2192 36.2141 17.2192 35.3396V27.8478C17.2192 25.0496 18.8589 22.4543 21.3541 21.2134C21.8371 21.5999 22.4488 21.8318 23.1141 21.8318H29.8868C30.5521 21.8318 31.1639 21.5999 31.6468 21.2134C34.1733 22.4619 35.7816 25.0164 35.7816 27.8477V35.3396C35.7816 36.2141 36.3169 36.9602 37.1451 37.2404C37.5299 37.3706 37.7884 37.729 37.7884 38.1324C37.7884 38.6511 37.3664 39.0731 36.8477 39.0731Z" fill="#FF1C45"/>
<path d="M28.6339 30.4817C28.0712 30.0718 27.3978 29.8408 26.7465 29.6174C26.6337 29.5787 26.521 29.5401 26.4097 29.5006C26.3999 29.4972 26.39 29.495 26.3802 29.4918C25.3029 29.0927 25.1166 28.8136 25.1206 28.3622C25.1289 27.4436 26.0915 27.374 26.3841 27.3777C26.934 27.3801 27.8065 27.645 27.8065 28.3454C27.8065 28.8649 28.2277 29.286 28.7472 29.286C29.2667 29.286 29.6879 28.8649 29.6879 28.3454C29.6879 26.8843 28.6181 25.9529 27.3781 25.627V24.8379C27.3781 24.3184 26.9569 23.8972 26.4374 23.8972C25.9179 23.8972 25.4968 24.3184 25.4968 24.8379V25.598C25.0498 25.7044 24.6407 25.8921 24.3008 26.1522C23.6244 26.6696 23.2474 27.4485 23.2394 28.3454C23.2343 28.9087 23.3824 29.4646 23.7125 29.9252C23.9888 30.3107 24.3683 30.6088 24.7799 30.8385C25.1234 31.0301 25.4898 31.1744 25.8601 31.3049C26.2146 31.4298 26.5726 31.5425 26.9203 31.6865C27.1461 31.7802 27.378 31.8833 27.5701 32.0374C27.7794 32.2055 27.8822 32.429 27.8798 32.6968C27.8716 33.6072 26.928 33.6814 26.6244 33.6814C26.6217 33.6814 26.6189 33.6814 26.6162 33.6814C26.0663 33.6789 25.1938 33.414 25.1938 32.7137C25.1938 32.1942 24.7726 31.773 24.2531 31.773C23.7336 31.773 23.3124 32.1942 23.3124 32.7137C23.3124 34.1748 24.3822 35.1061 25.6223 35.432V36.2519C25.6223 36.7714 26.0434 37.1926 26.5629 37.1926C27.0824 37.1926 27.5036 36.7714 27.5036 36.2519V35.461C27.9505 35.3547 28.3596 35.1669 28.6995 34.9069C29.3759 34.3894 29.7529 33.6105 29.7609 32.7136C29.7693 31.7835 29.3901 31.0326 28.6339 30.4817Z" fill="#FF1C45"/>
</g>
<defs>
<clipPath id="clip0">
<rect width="32.1212" height="32.1212" fill="white" transform="translate(10.4395 8.83325)"/>
</clipPath>
</defs>
</svg>
