<svg width="53" height="53" viewBox="0 0 53 53" fill="none" xmlns="http://www.w3.org/2000/svg">
<circle cx="26.5" cy="26.5" r="25" fill="white" stroke="#3782E9" stroke-width="3"/>
<g clip-path="url(#clip0)">
<path fill-rule="evenodd" clip-rule="evenodd" d="M35.143 38.2287L27.8228 38.2858V32.7456C29.6481 32.6314 31.6255 32.0031 32.9944 31.0322C33.4698 30.6895 33.4127 30.7656 34.0212 30.9179C34.8007 31.1273 35.5232 31.2987 36.2647 31.4891C37.9189 31.8889 39.3449 31.9841 40.1815 33.1454C40.9991 34.2687 40.6759 36.7056 40.6759 38.2667H36.9492C36.9492 37.1244 37.4056 34.6875 36.0936 34.6304C35.3141 34.5923 35.143 35.1635 35.143 35.925C35.143 36.6866 35.143 37.4671 35.143 38.2287ZM25.9785 28.2906C26.0926 29.452 27.9179 29.3568 27.8038 28.1193C27.6897 26.8818 25.8644 27.0912 25.9785 28.2906ZM25.9595 24.2735C25.9595 25.8156 27.7658 25.9108 27.8228 24.2735C27.8608 23.2264 28.0129 23.512 28.6023 23.017C31.2452 20.7704 28.4502 16.9628 25.5982 18.4287C23.4877 19.5139 23.906 22.4649 25.4842 21.6653C26.0546 21.3606 25.8074 20.8085 26.1686 20.2945C26.9672 19.2093 28.6404 20.7514 27.3475 21.6462C26.4348 22.2935 25.9595 22.8076 25.9595 24.2735ZM16.8331 38.2477L13.1064 38.2667C13.1064 36.7627 12.8212 34.2877 13.5627 33.1835C14.3233 32.0221 15.8063 31.8889 17.4415 31.5081C18.202 31.3177 18.9245 31.1273 19.6851 30.937C20.2745 30.7847 20.2935 30.6704 20.7498 30.9941C22.2519 32.0221 23.9251 32.6123 25.9595 32.7456V38.2667H18.6393C18.6393 36.4962 18.9626 34.6875 17.7647 34.6304C16.4908 34.5733 16.8331 36.5152 16.8331 38.2477ZM26.2067 16.2964C29.2678 16.0108 32.6712 17.5339 34.4395 19.7043C34.9338 20.2945 34.9148 20.1041 35.0289 21.0751C35.6753 26.4249 33.1085 30.5752 27.6327 30.9179C22.6512 31.2416 19.3808 28.5952 18.7534 24.2354C18.6013 23.1312 18.6203 21.5701 18.8295 20.5039C18.9626 19.8756 20.1794 18.8285 20.6167 18.4668C21.9857 17.3245 23.906 16.5249 26.2067 16.2964ZM20.0653 16.5439C20.4266 15.2874 21.8906 13.3835 22.5941 12.6982C25.275 9.99471 28.5073 9.95663 31.2072 12.6982C31.8727 13.3645 33.3557 15.3064 33.717 16.5439C33.2226 16.3345 32.8233 15.9918 32.2719 15.7253C29.496 14.2974 26.0546 14.0118 23.0885 15.0589C22.5181 15.2683 22.0237 15.4587 21.5104 15.7253C20.959 16.0108 20.5597 16.3345 20.0653 16.5439ZM34.9528 29.2235C35.219 28.7666 35.4852 28.4429 35.7514 27.9289C37.6527 24.2545 37.0823 19.9137 35.6373 16.2774C31.8917 6.89145 22.5371 5.8253 18.164 16.2774C16.9281 19.2093 16.2817 23.3406 17.4415 26.5772C18.0119 28.2145 18.24 28.1383 18.8295 29.2235C18.2781 29.5472 16.1866 29.9089 15.407 30.0993C10.7107 31.2606 11.2621 34.2116 11.2621 38.7237C11.2621 39.39 11.3382 39.9802 12.0227 40.0944L39.7252 40.1135C41.7406 40.1135 42.5392 40.4562 42.5202 38.7237C42.5202 37.3529 42.5962 35.7727 42.5011 34.44C42.4251 33.0883 41.8737 32.1935 41.1702 31.5081C40.3146 30.6514 39.7632 30.442 38.2992 30.0802C37.4816 29.8898 35.5422 29.5852 34.9528 29.2235Z" fill="#FF1C45"/>
</g>
<defs>
<clipPath id="clip0">
<rect width="31.3182" height="31.3182" fill="white" transform="translate(11.2422 8.83325)"/>
</clipPath>
</defs>
</svg>
