<svg width="53" height="53" viewBox="0 0 53 53" fill="none" xmlns="http://www.w3.org/2000/svg">
<circle cx="26.5" cy="26.5" r="25" fill="white" stroke="#3782E9" stroke-width="3"/>
<path d="M23.8324 25.6812H21.9272C21.4014 25.6812 20.9746 26.108 20.9746 26.6338C20.9746 27.1596 21.4014 27.5864 21.9272 27.5864H23.8324C24.3583 27.5864 24.7851 27.1596 24.7851 26.6338C24.7851 26.108 24.3583 25.6812 23.8324 25.6812Z" fill="#FF1C45"/>
<path d="M31.4525 25.6812H29.5474C29.0215 25.6812 28.5947 26.108 28.5947 26.6338C28.5947 27.1596 29.0215 27.5864 29.5474 27.5864H31.4525C31.9784 27.5864 32.4052 27.1596 32.4052 26.6338C32.4052 26.108 31.9784 25.6812 31.4525 25.6812Z" fill="#FF1C45"/>
<path d="M36.8389 29.3333C36.3245 29.2057 35.812 29.5162 35.6844 30.0288C34.3507 35.4053 30.7365 39.0176 26.6898 39.0176C22.6432 39.0176 19.029 35.4053 17.6953 30.0288C17.5677 29.5162 17.0494 29.2076 16.5407 29.3333C16.0302 29.4591 15.7196 29.9773 15.8453 30.4879C17.3943 36.7294 21.7515 40.9228 26.6898 40.9228C31.6281 40.9228 35.9853 36.7294 37.5343 30.4879C37.66 29.9773 37.3495 29.4591 36.8389 29.3333Z" fill="#FF1C45"/>
<path d="M26.6903 10.4395C20.3935 10.4395 15.4609 15.4616 15.4609 21.8707C15.4609 22.3966 15.8877 22.8234 16.4136 22.8234C16.9394 22.8234 17.3662 22.3966 17.3662 21.8707C17.3662 16.5285 21.4605 12.3446 26.6903 12.3446C31.9201 12.3446 36.0144 16.5285 36.0144 21.8707C36.0144 22.3966 36.4412 22.8234 36.967 22.8234C37.4928 22.8234 37.9196 22.3966 37.9196 21.8707C37.9196 15.4615 32.987 10.4395 26.6903 10.4395Z" fill="#FF1C45"/>
<path d="M33.886 30.6022C33.444 30.3107 32.8572 30.4289 32.5657 30.867L31.2263 32.8771C31.0492 33.1438 30.7519 33.3019 30.4337 33.3019H30.0832C29.645 33.3019 29.2659 33.0047 29.1134 32.4446L28.5209 31.029C28.3723 30.6746 28.0275 30.4441 27.6425 30.4441H25.7374C25.3525 30.4441 25.0076 30.6746 24.8572 31.0309L24.2208 32.5817C24.1141 33.0066 23.735 33.3038 23.2968 33.3038H22.9463C22.6281 33.3038 22.3308 33.1456 22.1537 32.8789L20.8143 30.8689C20.5228 30.4307 19.9322 30.3107 19.494 30.6041C19.0558 30.8956 18.9377 31.4862 19.2292 31.9244L20.5686 33.9345C21.1001 34.7309 21.9899 35.2072 22.9463 35.2072H23.2968C24.6114 35.2072 25.7507 34.3174 26.025 33.18L26.3718 32.3494H27.0138L27.311 33.0428C27.6292 34.3174 28.7704 35.2072 30.0831 35.2072H30.4337C31.39 35.2072 32.2798 34.7309 32.8114 33.9326L34.1507 31.9226C34.4423 31.4844 34.3242 30.8937 33.886 30.6022Z" fill="#FF1C45"/>
<path d="M23.7232 30.0023C23.4775 29.5374 22.9059 29.3564 22.4372 29.6003C21.7609 29.9547 19.5527 30.4443 17.1636 30.4443C16.6377 30.4443 16.2109 30.8711 16.2109 31.397C16.2109 31.9228 16.6377 32.3495 17.1636 32.3495C19.8461 32.3495 22.3381 31.8027 23.3212 31.2883C23.788 31.0445 23.9671 30.4691 23.7232 30.0023Z" fill="#FF1C45"/>
<path d="M36.2155 30.4443C33.8264 30.4443 31.6183 29.9547 30.9418 29.6003C30.475 29.3564 29.8997 29.5374 29.6558 30.0023C29.4119 30.4691 29.5911 31.0444 30.0578 31.2883C31.0409 31.8027 33.5329 32.3495 36.2154 32.3495C36.7413 32.3495 37.1681 31.9227 37.1681 31.3969C37.1681 30.871 36.7413 30.4443 36.2155 30.4443Z" fill="#FF1C45"/>
<path d="M25.408 23.0538C24.6135 22.368 20.5421 19.051 18.3968 21.1963C18.0253 21.5678 18.0253 22.1718 18.3968 22.5433C18.7683 22.9148 19.3723 22.9148 19.7438 22.5433C20.363 21.9279 22.735 23.2653 24.1639 24.4961C24.3449 24.6523 24.564 24.7286 24.785 24.7286C25.0518 24.7286 25.3184 24.6162 25.5071 24.3971C25.85 23.9988 25.8061 23.3986 25.408 23.0538Z" fill="#FF1C45"/>
<path d="M34.9828 21.1982C32.8395 19.053 28.7661 22.3699 27.9716 23.0558C27.5734 23.4006 27.5297 24.0007 27.8726 24.399C28.0612 24.6162 28.326 24.7286 28.5946 24.7286C28.8157 24.7286 29.0366 24.6524 29.2158 24.4981C30.6466 23.2654 33.0224 21.9318 33.6358 22.5452C34.0073 22.9167 34.6113 22.9167 34.9828 22.5452C35.3544 22.1737 35.3544 21.5697 34.9828 21.1982Z" fill="#FF1C45"/>
<path d="M37.5743 16.2445C33.5029 14.3336 26.9756 14.2517 26.6823 14.2498C26.406 14.2516 19.8788 14.3336 15.8073 16.2445C15.4586 16.4084 15.2433 16.7646 15.2586 17.1476L15.8187 30.2974C15.8416 30.8251 16.3007 31.2576 16.8114 31.21C17.3372 31.1872 17.7449 30.7432 17.722 30.2174L17.1905 17.7211C20.9266 16.2275 26.6384 16.155 26.6803 16.155C26.7413 16.155 32.4512 16.2275 36.1892 17.7211L35.6577 30.2174C35.6348 30.7432 36.0425 31.1872 36.5683 31.21C36.5817 31.21 36.5969 31.21 36.6102 31.21C37.117 31.21 37.54 30.8099 37.5629 30.2974L38.1211 17.1476C38.1364 16.7646 37.9211 16.4084 37.5743 16.2445Z" fill="#FF1C45"/>
<path d="M27.7988 35.2187C27.2786 35.1291 26.789 35.4835 26.7032 36.0017L26.6899 36.0799L26.6766 36.0037C26.5909 35.4855 26.0975 35.133 25.5811 35.2207C25.0629 35.3064 24.7123 35.7979 24.7981 36.3162L25.7507 42.0318C25.8269 42.4909 26.2232 42.8282 26.6899 42.8282C27.1567 42.8282 27.553 42.4909 27.6292 42.0299L28.5818 36.3142C28.6694 35.796 28.317 35.3044 27.7988 35.2187Z" fill="#FF1C45"/>
</svg>
