<svg width="53" height="53" viewBox="0 0 53 53" fill="none" xmlns="http://www.w3.org/2000/svg">
<circle cx="26.5" cy="26.5" r="25" fill="white" stroke="#3782E9" stroke-width="3"/>
<g clip-path="url(#clip0)">
<path d="M35.6638 12.3183L18.8002 11.4734L9.63672 25.6552L17.3369 40.6821L34.2005 41.527L43.364 27.345L35.6638 12.3183ZM34.3803 14.3046L40.4627 26.1743L27.1421 25.5069L21.0598 13.6373L34.3803 14.3046ZM11.9987 25.7735L19.237 14.5714L25.3194 26.441L18.0811 37.6433L11.9987 25.7735ZM33.122 39.4222L19.8013 38.7548L27.0396 27.5525L40.3602 28.2199L33.122 39.4222Z" fill="#FF1C45"/>
<path d="M31.0406 20.8276C31.7006 20.8276 32.2356 20.2926 32.2356 19.6327C32.2356 18.9727 31.7006 18.4377 31.0406 18.4377C30.3807 18.4377 29.8457 18.9727 29.8457 19.6327C29.8457 20.2926 30.3807 20.8276 31.0406 20.8276Z" fill="#FF1C45"/>
<path d="M25.6588 37.2922C26.3188 37.2922 26.8538 36.7572 26.8538 36.0973C26.8538 35.4373 26.3188 34.9023 25.6588 34.9023C24.9989 34.9023 24.4639 35.4373 24.4639 36.0973C24.4639 36.7572 24.9989 37.2922 25.6588 37.2922Z" fill="#FF1C45"/>
<path d="M34.3522 32.4675C35.0121 32.4675 35.5471 31.9325 35.5471 31.2726C35.5471 30.6126 35.0121 30.0776 34.3522 30.0776C33.6922 30.0776 33.1572 30.6126 33.1572 31.2726C33.1572 31.9325 33.6922 32.4675 34.3522 32.4675Z" fill="#FF1C45"/>
<path d="M18.6949 22.2559C19.3549 22.2559 19.8899 21.7209 19.8899 21.0609C19.8899 20.401 19.3549 19.866 18.6949 19.866C18.035 19.866 17.5 20.401 17.5 21.0609C17.5 21.7209 18.035 22.2559 18.6949 22.2559Z" fill="#FF1C45"/>
<path d="M15.4069 27.2873C16.0668 27.2873 16.6018 26.7524 16.6018 26.0924C16.6018 25.4325 16.0668 24.8975 15.4069 24.8975C14.7469 24.8975 14.2119 25.4325 14.2119 26.0924C14.2119 26.7524 14.7469 27.2873 15.4069 27.2873Z" fill="#FF1C45"/>
<path d="M21.4489 27.697C22.1088 27.697 22.6438 27.162 22.6438 26.5021C22.6438 25.8421 22.1088 25.3071 21.4489 25.3071C20.7889 25.3071 20.2539 25.8421 20.2539 26.5021C20.2539 27.162 20.7889 27.697 21.4489 27.697Z" fill="#FF1C45"/>
<path d="M18.2633 32.4675C18.9233 32.4675 19.4583 31.9325 19.4583 31.2726C19.4583 30.6126 18.9233 30.0776 18.2633 30.0776C17.6034 30.0776 17.0684 30.6126 17.0684 31.2726C17.0684 31.9325 17.6034 32.4675 18.2633 32.4675Z" fill="#FF1C45"/>
</g>
<defs>
<clipPath id="clip0">
<rect width="33.7273" height="33.7273" fill="white" transform="translate(9.63672 9.63647)"/>
</clipPath>
</defs>
</svg>
