<svg width="53" height="53" viewBox="0 0 53 53" fill="none" xmlns="http://www.w3.org/2000/svg">
<circle cx="26.5" cy="26.5" r="25" fill="white" stroke="#3782E9" stroke-width="3"/>
<path d="M21.7687 11.5151C23.6932 8.18181 28.5045 8.1818 30.429 11.5151L42.9798 33.2538C44.9043 36.5871 42.4987 40.7538 38.6497 40.7538H13.5481C9.69906 40.7538 7.29343 36.5871 9.21793 33.2538L21.7687 11.5151Z" fill="#FF1C45"/>
<path d="M29.7735 24.9997L24.3519 23.4633C23.7244 23.2883 23.2876 22.7194 23.2876 22.0874C23.2876 21.2948 23.9503 20.653 24.7685 20.653H28.0968C28.7092 20.653 29.3116 20.8329 29.8136 21.1636C30.1199 21.3629 30.5315 21.3143 30.7925 21.0663L32.5395 19.4132C32.8959 19.0777 32.8457 18.5186 32.4492 18.222C31.2192 17.2885 29.6831 16.7682 28.1068 16.7634V14.4295C28.1068 14.0017 27.7454 13.6516 27.3036 13.6516H25.6972C25.2555 13.6516 24.894 14.0017 24.894 14.4295V16.7634H24.7685C21.5708 16.7634 19.0005 19.4229 19.2967 22.5784C19.5075 24.8198 21.2746 26.6431 23.5035 27.2752L28.649 28.7338C29.2765 28.9137 29.7132 29.4777 29.7132 30.1098C29.7132 30.9023 29.0506 31.5441 28.2323 31.5441H24.9041C24.2916 31.5441 23.6892 31.3642 23.1872 31.0336C22.881 30.8343 22.4694 30.8829 22.2083 31.1309L20.4614 32.784C20.1049 33.1194 20.1551 33.6786 20.5517 33.9752C21.7816 34.9087 23.3177 35.4289 24.894 35.4338V37.7676C24.894 38.1955 25.2555 38.5456 25.6972 38.5456H27.3036C27.7454 38.5456 28.1068 38.1955 28.1068 37.7676V35.4241C30.4462 35.3803 32.6399 34.0335 33.413 31.8893C34.4923 28.8943 32.6801 25.8214 29.7735 24.9997Z" fill="white"/>
</svg>
