<svg width="53" height="53" viewBox="0 0 53 53" fill="none" xmlns="http://www.w3.org/2000/svg">
<circle cx="26.5" cy="26.5" r="25" fill="white" stroke="#3782E9" stroke-width="3"/>
<g clip-path="url(#clip0)">
<path d="M34.0037 20.7596H32.0255V16.2457C32.0255 13.0441 29.3659 10.4395 26.0969 10.4395C22.8278 10.4395 20.1682 13.0441 20.1682 16.2457V20.7596H18.1941C16.3779 20.7596 14.9004 22.2372 14.9004 24.0533V35.2518C14.9004 37.068 16.3779 38.5455 18.1941 38.5455H34.0037C35.8199 38.5455 37.2974 37.068 37.2974 35.2518V24.0533C37.2974 22.2372 35.8199 20.7596 34.0037 20.7596ZM22.364 16.2457C22.364 14.2549 24.0386 12.6352 26.0969 12.6352C28.1551 12.6352 29.8297 14.2549 29.8297 16.2457V20.7596H22.364V16.2457ZM35.1016 35.2518C35.1016 35.8572 34.6091 36.3497 34.0037 36.3497H18.1941C17.5887 36.3497 17.0962 35.8572 17.0962 35.2518V24.0533C17.0962 23.4479 17.5887 22.9554 18.1941 22.9554H34.0037C34.6091 22.9554 35.1016 23.4479 35.1016 24.0533V35.2518Z" fill="#FF1C45"/>
<path d="M26.0985 26.1394C24.9767 26.1394 24.0674 27.0487 24.0674 28.1705C24.0674 28.8868 24.4385 29.516 24.9986 29.8776V32.2876C24.9986 32.8939 25.4901 33.3855 26.0965 33.3855C26.7028 33.3855 27.1943 32.8939 27.1943 32.2876V29.8802C27.7567 29.519 28.1296 28.8885 28.1296 28.1705C28.1296 27.0487 27.2203 26.1394 26.0985 26.1394Z" fill="#FF1C45"/>
</g>
<defs>
<clipPath id="clip0">
<rect width="28.1061" height="28.1061" fill="white" transform="translate(12.0459 10.4395)"/>
</clipPath>
</defs>
</svg>
