<svg width="53" height="53" viewBox="0 0 53 53" fill="none" xmlns="http://www.w3.org/2000/svg">
<circle cx="26.5" cy="26.5" r="25" fill="white" stroke="#3782E9" stroke-width="3"/>
<g clip-path="url(#clip0)">
<path d="M37.3412 20.4271L37.5502 19.2336L40.1738 16.61L36.3898 12.826L33.7665 15.4494L32.5726 15.6585C28.5245 12.688 24.6041 11.2424 20.6007 11.2424C20.5769 11.2424 20.5529 11.2424 20.5292 11.2426L20.1608 11.2441L19.156 12.2502L19.9144 12.8759C22.0062 14.6018 23.9824 16.5161 26.0747 18.5427C26.5488 19.002 27.036 19.4739 27.5258 19.9445L27.1551 22.0608L11.2422 37.9737L15.0262 41.7575L30.9389 25.8449L33.0553 25.4741C33.526 25.964 33.9981 26.4513 34.4575 26.9256C36.484 29.0178 38.3982 30.9939 40.1238 33.0855L40.7503 33.8448L41.7556 32.8383L41.7571 32.4706C41.7745 28.4425 40.3293 24.4992 37.3412 20.4271ZM37.6453 16.61L36.7186 17.5367L35.4632 16.2813L36.3899 15.3546L37.6453 16.61ZM13.7709 37.9737L27.9869 23.7576L29.2423 25.013L15.0262 39.2289L13.7709 37.9737ZM33.6865 23.5483L30.8101 24.0522L28.9477 22.1897L29.4515 19.3132C29.4515 19.3132 24.4865 14.5152 23.0691 13.2396C25.9449 13.7283 28.8267 15.0761 31.8109 17.32L32.1206 17.5529L33.8952 17.242L35.7576 19.1044L35.4468 20.8791L35.6797 21.1888C37.9238 24.1732 39.2715 27.0545 39.76 29.9305C38.4848 28.5134 33.6865 23.5483 33.6865 23.5483Z" fill="#0DB4AA"/>
</g>
<defs>
<clipPath id="clip0">
<rect width="30.5152" height="30.5152" fill="white" transform="translate(11.2422 11.2424)"/>
</clipPath>
</defs>
</svg>
