<svg width="53" height="53" viewBox="0 0 53 53" fill="none" xmlns="http://www.w3.org/2000/svg">
<circle cx="26.5" cy="26.5" r="25" fill="white" stroke="#3782E9" stroke-width="3"/>
<path d="M30.7172 25.59L24.3933 23.7562C23.6614 23.5473 23.1519 22.8683 23.1519 22.1139C23.1519 21.168 23.9249 20.4019 24.8793 20.4019H28.7614C29.4758 20.4019 30.1785 20.6167 30.764 21.0113C31.1212 21.2492 31.6013 21.1912 31.9058 20.8952L33.9435 18.9221C34.3592 18.5217 34.3007 17.8544 33.8381 17.5004C32.4035 16.3862 30.6118 15.7652 28.7731 15.7594V12.9739C28.7731 12.4632 28.3516 12.0454 27.8363 12.0454H25.9625C25.4473 12.0454 25.0257 12.4632 25.0257 12.9739V15.7594H24.8793C21.1494 15.7594 18.1514 18.9337 18.4969 22.7C18.7428 25.3752 20.8039 27.5514 23.4037 28.3058L29.4055 30.0468C30.1375 30.2615 30.6469 30.9347 30.6469 31.6891C30.6469 32.635 29.874 33.401 28.9195 33.401H25.0374C24.323 33.401 23.6204 33.1863 23.0348 32.7917C22.6776 32.5537 22.1975 32.6118 21.893 32.9077L19.8553 34.8808C19.4396 35.2812 19.4981 35.9486 19.9607 36.3026C21.3953 37.4168 23.1871 38.0377 25.0257 38.0435V40.829C25.0257 41.3397 25.4473 41.7575 25.9625 41.7575H27.8363C28.3516 41.7575 28.7731 41.3397 28.7731 40.829V38.0319C31.5018 37.9797 34.0606 36.3722 34.9623 33.813C36.2213 30.2383 34.1074 26.5707 30.7172 25.59Z" fill="#FF1C45"/>
<circle cx="26.4999" cy="26.4999" r="19.8788" stroke="#FF1C45" stroke-width="2"/>
</svg>
