<svg width="53" height="53" viewBox="0 0 53 53" fill="none" xmlns="http://www.w3.org/2000/svg">
<circle cx="26.5" cy="26.5" r="25" fill="white" stroke="#3782E9" stroke-width="3"/>
<g clip-path="url(#clip0)">
<path d="M43.6418 21.6048C43.1752 21.0194 42.4752 20.6836 41.7212 20.6836H34.9165L31.2266 12.2345C30.9978 11.7106 30.3877 11.4712 29.8637 11.7001C29.3398 11.9289 29.1005 12.5391 29.3294 13.0631L32.6574 20.6837H20.3419L23.67 13.0631C23.8987 12.5391 23.6596 11.929 23.1356 11.7001C22.6118 11.4712 22.0015 11.7105 21.7727 12.2345L18.0828 20.6837H11.2781C10.5241 20.6837 9.82414 21.0194 9.35756 21.6048C8.89954 22.1796 8.73053 22.9184 8.89388 23.6321L12.5278 39.5045C12.7815 40.6128 13.7619 41.3868 14.912 41.3868H38.0874C39.2374 41.3868 40.2178 40.6128 40.4716 39.5045L44.1055 23.632C44.2688 22.9183 44.0998 22.1795 43.6418 21.6048ZM38.0874 39.3164H14.912C14.7362 39.3164 14.5823 39.2012 14.5459 39.0423L10.912 23.1701C10.8835 23.0455 10.9313 22.9518 10.9766 22.8951C11.0186 22.8424 11.1136 22.754 11.2781 22.754H17.1787L16.9076 23.3749C16.6788 23.8988 16.918 24.509 17.4419 24.7378C17.5768 24.7968 17.7173 24.8247 17.8556 24.8247C18.2547 24.8247 18.6349 24.5926 18.8048 24.2036L19.4378 22.7541H33.5617L34.1947 24.2036C34.3646 24.5926 34.7448 24.8247 35.1439 24.8247C35.2822 24.8247 35.4227 24.7968 35.5576 24.7378C36.0815 24.5091 36.3208 23.8988 36.0919 23.3749L35.8208 22.754H41.7214C41.8859 22.754 41.9809 22.8424 42.0229 22.8951C42.0681 22.9518 42.116 23.0456 42.0875 23.17L38.4536 39.0424C38.4172 39.2012 38.2631 39.3164 38.0874 39.3164Z" fill="#0DB4AA"/>
<path d="M20.2891 27.2397C19.7174 27.2397 19.2539 27.7032 19.2539 28.2749V35.866C19.2539 36.4377 19.7174 36.9012 20.2891 36.9012C20.8607 36.9012 21.3242 36.4377 21.3242 35.866V28.2749C21.3242 27.7032 20.8608 27.2397 20.2891 27.2397Z" fill="#0DB4AA"/>
<path d="M26.5 27.2397C25.9283 27.2397 25.4648 27.7032 25.4648 28.2749V35.866C25.4648 36.4377 25.9283 36.9012 26.5 36.9012C27.0717 36.9012 27.5352 36.4377 27.5352 35.866V28.2749C27.5352 27.7032 27.0717 27.2397 26.5 27.2397Z" fill="#0DB4AA"/>
<path d="M32.7109 27.2397C32.1393 27.2397 31.6758 27.7032 31.6758 28.2749V35.866C31.6758 36.4377 32.1393 36.9012 32.7109 36.9012C33.2826 36.9012 33.7461 36.4377 33.7461 35.866V28.2749C33.746 27.7032 33.2826 27.2397 32.7109 27.2397Z" fill="#0DB4AA"/>
</g>
<defs>
<clipPath id="clip0">
<rect width="35.3333" height="35.3333" fill="white" transform="translate(8.83301 8.83325)"/>
</clipPath>
</defs>
</svg>
