<svg width="53" height="53" viewBox="0 0 53 53" fill="none" xmlns="http://www.w3.org/2000/svg">
<circle cx="26.5" cy="26.5" r="25" fill="white" stroke="#3782E9" stroke-width="3"/>
<g clip-path="url(#clip0)">
<path d="M36.7735 28.5446V17.9294C36.7735 16.3338 35.4754 15.0356 33.8798 15.0356H12.5305C10.9348 15.0356 9.63672 16.3338 9.63672 17.9294V32.2051C9.63672 33.8007 10.9348 35.0989 12.5305 35.0989H29.0585C29.0576 35.1417 29.0569 35.1844 29.0569 35.2275C29.0569 38.9505 32.0858 41.9795 35.8089 41.9795C39.532 41.9795 42.561 38.9505 42.561 35.2275C42.561 31.8318 40.0413 29.0141 36.7735 28.5446ZM12.5305 16.9648H33.8798C34.4116 16.9648 34.8443 17.3975 34.8443 17.9294V18.5081H11.5659V17.9294C11.5659 17.3975 11.9986 16.9648 12.5305 16.9648ZM11.5659 20.4373H34.8443V22.3664H11.5659V20.4373ZM12.5305 33.1697C11.9986 33.1697 11.5659 32.737 11.5659 32.2051V24.2956H34.8443V28.5446C32.2669 28.9149 30.1551 30.7462 29.3779 33.1697H12.5305ZM35.8089 40.0504C33.1496 40.0504 30.986 37.8868 30.986 35.2275C30.986 32.5681 33.1496 30.4046 35.8089 30.4046C38.4683 30.4046 40.6318 32.5681 40.6318 35.2275C40.6318 37.8868 38.4683 40.0504 35.8089 40.0504Z" fill="#0DB4AA"/>
<path d="M37.2169 33.4523L35.5839 35.0852L35.0763 34.5775C34.6997 34.2008 34.0889 34.2008 33.7122 34.5775C33.3355 34.9542 33.3355 35.5649 33.7122 35.9416L34.9019 37.1313C35.0902 37.3196 35.3371 37.4138 35.5839 37.4138C35.8307 37.4138 36.0776 37.3197 36.2659 37.1313L38.5809 34.8163C38.9576 34.4396 38.9576 33.8289 38.5809 33.4522C38.2043 33.0755 37.5935 33.0755 37.2169 33.4523Z" fill="#0DB4AA"/>
<path d="M14.4597 28.154H16.8711C17.4038 28.154 17.8357 27.7221 17.8357 27.1894C17.8357 26.6567 17.4038 26.2249 16.8711 26.2249H14.4597C13.927 26.2249 13.4951 26.6567 13.4951 27.1894C13.4951 27.7221 13.927 28.154 14.4597 28.154Z" fill="#0DB4AA"/>
<path d="M19.9256 29.3113H14.4597C13.927 29.3113 13.4951 29.7432 13.4951 30.2759C13.4951 30.8086 13.927 31.2404 14.4597 31.2404H19.9256C20.4583 31.2404 20.8902 30.8086 20.8902 30.2759C20.8902 29.7432 20.4583 29.3113 19.9256 29.3113Z" fill="#0DB4AA"/>
</g>
<defs>
<clipPath id="clip0">
<rect width="32.9242" height="32.9242" fill="white" transform="translate(9.63672 12.0454)"/>
</clipPath>
</defs>
</svg>
